<?xml version="1.0" standalone="no"?>
<!DOCTYPE svg PUBLIC "-//W3C//DTD SVG 20010904//EN"
 "http://www.w3.org/TR/2001/REC-SVG-20010904/DTD/svg10.dtd">
<svg version="1.0" xmlns="http://www.w3.org/2000/svg"
 width="500.000000pt" height="500.000000pt" viewBox="0 0 500.000000 500.000000"
 preserveAspectRatio="xMidYMid meet">

<g transform="translate(0.000000,500.000000) scale(0.100000,-0.100000)"
fill="#000000" stroke="none">
<path d="M0 2500 l0 -2500 2500 0 2500 0 0 2500 0 2500 -2500 0 -2500 0 0
-2500z m3050 1438 l0 -193 60 -33 60 -33 0 -359 0 -360 154 0 155 0 -10 -32
c-12 -45 -11 -224 2 -271 6 -22 8 -41 5 -44 -2 -3 -24 -2 -48 2 -80 13 -158
125 -158 227 l0 29 -62 -3 -63 -3 -8 -50 c-4 -27 -7 -227 -5 -445 l3 -395 24
-50 c14 -27 27 -53 29 -57 2 -5 -109 -8 -247 -8 l-250 0 27 52 27 52 3 363 3
364 -49 -28 -50 -27 24 -31 c60 -79 73 -200 30 -290 -30 -64 -65 -97 -147
-135 -114 -53 -181 -60 -576 -60 -195 0 -353 3 -351 8 40 76 42 90 49 262 4
96 7 281 8 411 1 229 0 236 -20 255 -49 43 -67 160 -31 204 l18 22 37 -25 c39
-27 114 -47 172 -47 l35 0 0 235 c0 308 1 309 157 93 252 -346 234 -325 279
-331 134 -19 233 -94 255 -191 l12 -56 221 0 c122 0 231 3 244 6 l22 6 -2 331
-3 331 -57 33 -58 34 0 174 0 175 -30 0 -30 0 0 -85 c0 -47 -2 -85 -4 -85 -3
0 -21 9 -40 21 l-36 21 0 104 0 104 110 0 110 0 0 -192z m-325 -3 l180 -103 3
-46 c2 -25 1 -46 -1 -46 -3 0 -67 36 -143 80 -75 45 -159 92 -185 106 l-47 26
-163 -95 c-90 -52 -197 -114 -236 -137 l-73 -42 -20 23 c-11 13 -19 30 -17 37
2 13 493 302 512 301 6 0 91 -46 190 -104z m-217 -157 c14 -14 16 -96 3 -116
-5 -9 -26 -12 -67 -10 l-59 3 -3 59 c-2 41 1 62 10 67 20 13 102 11 116 -3z
m170 3 c9 -5 12 -26 10 -67 l-3 -59 -59 -3 c-69 -4 -76 3 -76 70 0 34 5 50 18
57 21 13 92 14 110 2z m-164 -197 c3 -9 6 -35 6 -59 0 -51 -16 -65 -74 -65
-60 0 -66 6 -66 69 0 32 3 61 7 64 3 4 32 7 64 7 43 0 58 -4 63 -16z m174 -48
c2 -35 -1 -62 -8 -66 -21 -13 -113 -12 -121 2 -11 16 -12 112 -2 122 4 4 34 6
68 4 l60 -3 3 -59z m-610 -1742 c23 -16 29 -48 11 -59 -7 -5 -4 -14 8 -27 16
-18 16 -22 2 -46 -12 -23 -22 -27 -67 -30 l-52 -3 0 90 0 91 38 0 c21 0 48 -7
60 -16z m194 -14 c27 -27 30 -36 25 -73 -7 -51 -36 -77 -85 -77 -52 0 -82 32
-82 87 0 88 81 123 142 63z m172 19 c51 -24 59 -121 13 -154 -32 -22 -86 -19
-114 7 -17 16 -23 32 -23 65 0 74 57 112 124 82z m106 -36 l0 -48 45 46 45 47
95 1 c77 1 95 -1 95 -13 0 -9 -12 -16 -27 -18 -27 -3 -28 -5 -31 -75 -2 -56
-6 -73 -17 -73 -12 0 -15 16 -15 76 0 72 -1 76 -20 71 -11 -3 -26 1 -34 8 -11
12 -18 9 -45 -19 l-31 -32 26 -35 c44 -58 47 -69 24 -69 -12 0 -30 15 -46 40
-26 38 -28 40 -45 24 -11 -10 -19 -28 -19 -41 0 -14 -6 -23 -15 -23 -12 0 -15
17 -15 90 0 73 3 90 15 90 11 0 15 -12 15 -47z m420 32 c0 -16 -5 -17 -55 -19
-23 -1 -30 -6 -30 -21 0 -16 8 -21 38 -23 53 -5 51 -32 -3 -32 -33 0 -40 -3
-40 -20 0 -17 7 -20 45 -20 33 0 45 -4 45 -15 0 -12 -13 -15 -60 -15 l-60 0 0
90 0 90 60 0 c47 0 60 -3 60 -15z m70 -60 l0 -75 35 0 c24 0 35 -5 35 -15 0
-12 -13 -15 -55 -15 l-55 0 0 83 c0 85 3 97 27 97 10 0 13 -19 13 -75z m-1315
-135 c3 -5 1 -10 -4 -10 -6 0 -12 -15 -13 -32 l-1 -33 -4 33 c-2 17 -8 32 -14
32 -5 0 -9 5 -9 10 0 6 9 10 19 10 11 0 23 -4 26 -10z m124 -32 c-1 -24 -3
-35 -6 -25 -5 21 -33 23 -33 2 0 -8 -4 -15 -10 -15 -5 0 -10 16 -10 35 0 19 5
35 10 35 6 0 10 -7 10 -15 0 -8 7 -15 15 -15 8 0 15 9 15 20 0 11 2 20 5 20 3
0 4 -19 4 -42z m121 32 c0 -5 -9 -10 -20 -10 -28 0 -25 -20 3 -21 l22 -2 -22
-4 c-13 -2 -23 -8 -23 -13 0 -5 10 -11 23 -13 19 -4 18 -4 -5 -6 -25 -1 -28 2
-28 32 0 19 3 37 7 40 10 11 43 8 43 -3z m177 2 c6 -4 13 -21 15 -37 2 -25 -1
-31 -19 -33 -21 -3 -23 1 -23 37 0 41 5 47 27 33z m128 -2 c3 -5 -3 -10 -14
-10 -28 0 -27 -20 2 -21 l22 -2 -22 -4 c-13 -2 -23 -8 -23 -13 0 -5 10 -11 23
-13 19 -4 18 -4 -5 -6 -25 -1 -28 2 -28 32 0 19 3 37 7 40 10 10 31 8 38 -3z
m115 -7 c0 -3 -7 -3 -15 1 -8 3 -15 1 -15 -5 0 -5 7 -12 15 -15 22 -9 19 -44
-4 -44 -11 0 -23 5 -27 11 -4 8 0 9 15 4 25 -8 29 10 4 23 -20 12 -10 44 12
36 8 -3 15 -8 15 -11z m120 7 c0 -6 -4 -8 -10 -5 -6 4 -10 -8 -10 -29 0 -20
-4 -36 -10 -36 -5 0 -10 14 -10 30 0 17 -4 30 -10 30 -25 0 -7 16 20 18 17 1
30 -3 30 -8z m328 -38 c-4 -32 -36 -42 -54 -17 -23 31 6 71 39 54 12 -7 17
-19 15 -37z m112 31 c0 -3 -7 -3 -15 1 -8 3 -15 1 -15 -5 0 -5 7 -12 15 -15
22 -9 19 -44 -4 -44 -11 0 -23 5 -27 11 -4 8 0 9 15 4 25 -8 29 10 4 23 -20
12 -10 44 12 36 8 -3 15 -8 15 -11z m120 7 c0 -5 -4 -10 -10 -10 -5 0 -11 -15
-11 -32 l-2 -33 -4 30 c-3 17 -9 36 -15 43 -8 9 -4 12 16 12 14 0 26 -4 26
-10z m110 0 c0 -5 -7 -10 -15 -10 -21 0 -19 -20 3 -21 16 -1 16 -2 0 -6 -10
-2 -18 -8 -18 -13 0 -5 8 -11 18 -13 10 -3 6 -5 -10 -6 -25 -1 -28 2 -28 33 0
19 6 37 13 39 21 9 37 7 37 -3z m98 -63 c12 -3 11 -5 -5 -6 -21 -1 -23 3 -21
42 l1 42 4 -37 c3 -24 10 -38 21 -41z m108 53 c-16 -5 -16 -7 -2 -19 9 -7 16
-20 16 -27 0 -15 -36 -19 -44 -5 -4 5 3 7 14 4 24 -6 26 5 3 22 -21 16 -10 47
13 38 16 -6 16 -7 0 -13z m-706 -20 c10 0 21 8 23 18 3 9 5 -1 5 -23 0 -22 -2
-32 -5 -22 -2 9 -13 17 -23 17 -10 0 -21 -8 -23 -17 -3 -10 -5 0 -5 22 0 22 2
32 5 23 2 -10 13 -18 23 -18z"/>
<path d="M1973 3359 l-3 -151 88 7 c48 4 112 7 142 6 l54 -2 -19 23 c-11 13
-57 61 -101 108 -45 47 -96 102 -114 123 -18 20 -35 37 -39 37 -3 0 -7 -68 -8
-151z"/>
<path d="M2078 3154 c-5 -4 -8 -58 -8 -119 l0 -111 73 -42 c40 -23 78 -42 84
-42 34 0 46 180 15 239 -9 19 -29 43 -43 54 -28 20 -109 34 -121 21z"/>
<path d="M2611 2813 c-10 -52 -9 -59 8 -76 18 -18 20 -18 75 13 58 33 65 46
46 94 -9 24 -15 26 -63 26 l-54 0 -12 -57z"/>
<path d="M2070 2805 c0 -22 4 -25 40 -25 22 0 40 2 40 4 0 4 -68 46 -76 46 -2
0 -4 -11 -4 -25z"/>
<path d="M2400 2740 c0 -5 7 -10 15 -10 8 0 15 5 15 10 0 6 -7 10 -15 10 -8 0
-15 -4 -15 -10z"/>
<path d="M2070 2453 c0 -184 3 -242 13 -246 25 -9 137 11 169 31 19 12 45 40
58 64 22 38 25 55 25 148 0 87 -4 112 -21 145 -28 55 -84 85 -174 92 l-70 6 0
-240z"/>
<path d="M2017 1773 c-15 -15 -6 -33 17 -33 33 0 42 16 17 29 -23 13 -26 13
-34 4z"/>
<path d="M2017 1703 c-4 -3 -7 -15 -7 -25 0 -23 48 -25 57 -2 9 23 -32 45 -50
27z"/>
<path d="M2175 1757 c-22 -35 -10 -85 23 -94 36 -9 57 8 60 49 5 62 -52 92
-83 45z"/>
<path d="M2372 1768 c-34 -43 -14 -108 33 -108 27 0 45 25 45 64 0 44 -53 74
-78 44z"/>
<path d="M2130 1579 c0 -5 5 -7 10 -4 6 3 10 8 10 11 0 2 -4 4 -10 4 -5 0 -10
-5 -10 -11z"/>
<path d="M2130 1550 c0 -5 5 -10 10 -10 6 0 10 5 10 10 0 6 -4 10 -10 10 -5 0
-10 -4 -10 -10z"/>
<path d="M2790 1564 c0 -33 33 -30 38 4 3 17 -2 22 -17 22 -16 0 -21 -6 -21
-26z"/>
</g>
</svg>
